<svg id="Capa_1" enable-background="new 0 0 512 512" height="512" viewBox="0 0 512 512" width="512" xmlns="http://www.w3.org/2000/svg"><g><g><path d="m271.384 416.048h-24.096l-51.714 51.715v23.017l13.721 13.721h124.205v-11.82c0-37.384-26.338-69.333-62.116-76.633z" fill="#d4d4ff"/><path d="m255.999 414.5c-24.412 0-46.22 11.449-60.436 29.3-7.183 9.02-12.429 19.674-15.09 31.315v9.118h29.272c3.64-33.937 28.949-61.505 61.639-68.185-4.974-1.015-10.118-1.548-15.385-1.548z" fill="#9ea2e3"/><path d="m178.5 492.68v11.82h30.795v-11.82c0-2.853.153-5.671.451-8.447-10.063-2.32-19.836-5.377-29.272-9.118-1.292 5.649-1.974 11.525-1.974 17.565z" fill="#c8866a"/></g><path d="m405.383 209.5h-32.005v82.378l27.622 27.622h4.383c45.076 0 81.617-24.624 81.617-55 0-30.375-36.542-55-81.617-55z" fill="#8288cb"/><g><path d="m401 249.498h-4.255-281.487-4.258c-19.33 0-35 15.672-35 35.002s15.67 35 35 35h290c19.33 0 35-15.67 35-35s-15.67-35.002-35-35.002z" fill="#c8866a"/><g><path d="m361.512 208.095h-208.099v152.456l99.593 66.937h27.142c67.381-11.297 119.01-69.053 120.802-139.211z" fill="#db9e82"/><g><path d="m159.099 284.702c0-20.733 4.352-40.447 12.179-58.288l-17.037-17.469-43.191 79.331c1.793 70.159 53.421 127.914 120.802 139.211 7.854 1.316 15.918 2.013 24.147 2.013s16.293-.696 24.147-2.013c-68.686-11.466-121.047-70.807-121.047-142.785z" fill="#c8866a"/></g></g><g fill="#ffdbe0"><ellipse cx="177" cy="332.126" rx="29" ry="23"/><ellipse cx="335" cy="332.126" rx="29" ry="23"/></g></g><g><path d="m135.087 204.458c-9.008 13.58-15.793 28.772-19.829 45.04-3.134 12.631-4.544 25.646-4.207 38.778 23.771-2.271 42.362-22.285 42.362-46.651 0-15.142-7.186-28.598-18.326-37.167z" fill="#ffb39d"/><path d="m376.913 204.458c-11.14 8.57-18.326 22.026-18.326 37.167 0 24.366 18.591 44.38 42.362 46.651.337-13.143-1.075-26.161-4.205-38.779-4.035-16.271-10.821-31.457-19.831-45.039z" fill="#fad5cb"/></g><g><g><path d="m375.196 162.862c-6.63-26.25-27.848-47.192-54.286-55.191l-15.14-4.581h-80.806l-67.174 71.252 66.187 42.401c10.282-.867 20.927-1.225 32.024-1.03 48.583.679 99.878 10.891 140.745 33.784z" fill="#9ea2e3"/><path d="m279.02 94.996c-15.214-4.604-31.497-4.604-46.71 0l-41.89 12.674c-26.438 8-46.657 28.941-53.286 55.191l-7.865 31.141-14.011 55.495c18.091-9.666 36.528-17.437 56.021-23.084 16.648-4.823 34.065-8.1 52.698-9.67l8.835-35.61 4.533-18.271c3.526-13.962 10.898-26.422 21.004-36.232 8.894-8.633 19.906-15.214 32.282-18.959l15.139-4.581z" fill="#8288cb"/></g><g><path d="m305.657 153.387c-2.296-9.23-9.279-16.572-18.383-19.327l-18.393-5.564c-3.426-1.037-6.958-1.657-10.533-1.867l-25.537 13.8v40.704c27.182-1.347 55.162.366 80.87 4.516z" fill="#fad5cb"/><path d="m258.348 126.629c-.892-.052-1.787-.086-2.683-.086-4.489 0-8.937.657-13.22 1.953l-17.641 5.338c-9.071 2.744-16.038 10.043-18.359 19.232l-7.966 31.542c11.132-1.763 22.659-2.896 34.331-3.475l4.533-18.271c3.527-13.963 10.899-26.423 21.005-36.233z" fill="#ffb39d"/></g></g><g><g><path d="m348.5 386.399h-19.576c-16.569 0-30 13.431-30 30v56.203c0 16.569 13.431 30 30 30h19.576c25.849-6.678 45-30.195 45-58.101s-19.151-51.425-45-58.102z" fill="#ffce71"/><path d="m303.5 444.5c0-27.906 19.151-51.424 45-58.101-4.796-1.239-9.822-1.899-15-1.899-33.084 0-60 26.916-60 60s26.916 60 60 60c5.178 0 10.204-.66 15-1.899-25.849-6.677-45-30.195-45-58.101z" fill="#ffb357"/></g><circle cx="333.5" cy="444.5" fill="#fc8a3d" r="30"/><path d="m424.044 436.608c-4.879-2.986-10.229-5.279-15.911-6.741-1.463-5.683-3.756-11.032-6.742-15.911-3.636-5.941-12.149-5.941-15.784 0-2.986 4.879-5.279 10.229-6.742 15.911-5.682 1.463-11.031 3.755-15.911 6.741-2.97 1.818-4.456 4.855-4.456 7.892s1.485 6.074 4.456 7.892c4.879 2.986 10.231 5.289 15.914 6.752 1.463 5.682 3.753 11.021 6.739 15.901 3.635 5.941 12.148 5.941 15.784 0 2.986-4.879 5.275-10.218 6.739-15.901 5.682-1.463 11.035-3.766 15.913-6.752 5.942-3.636 5.942-12.148.001-15.784z" fill="#fce3a0"/></g><g><path d="m247.209 15h5.63v40.271c0 4.143 3.357 7.5 7.5 7.5s7.5-3.357 7.5-7.5v-40.271h5.735c4.143 0 7.5-3.357 7.5-7.5s-3.357-7.5-7.5-7.5h-26.365c-4.143 0-7.5 3.357-7.5 7.5s3.357 7.5 7.5 7.5z"/><path d="m112.65 62.989c10.803 0 19.886-6.953 21.597-16.533 1.299-7.27-1.921-16.738-14.854-21.512-5.593-2.064-10.819-4.307-12.696-5.126-1.004-.979-.676-3.29 2.236-4.169 5.889-1.775 11.509 2.589 11.726 2.76 3.168 2.621 7.866 2.2 10.518-.953 2.667-3.17 2.259-7.9-.912-10.566-4.336-3.648-14.623-8.929-25.659-5.602-7.167 2.16-12.241 7.835-13.242 14.81-1.257 8.75 4.346 15.249 8.486 17.096.278.124 6.897 3.072 14.35 5.823 2.784 1.027 5.635 2.829 5.282 4.802-.301 1.683-2.68 4.171-6.831 4.171-4.318 0-8.46-1.726-11.078-4.616-2.781-3.071-7.524-3.303-10.594-.523-3.07 2.781-3.304 7.524-.523 10.594 5.495 6.065 13.585 9.544 22.194 9.544z"/><path d="m198.272 62.771c4.143 0 7.5-3.357 7.5-7.5v-9.462l12.679 14.415c2.735 3.11 7.475 3.414 10.585.679 3.11-2.736 3.414-7.475.679-10.585l-10.639-12.096c7.347-3.048 12.507-10.104 12.507-18.307 0-10.981-9.245-19.915-20.609-19.915h-12.686c-.002 0-.005 0-.008 0s-.005 0-.008 0c-4.143 0-7.5 3.357-7.5 7.5v47.771c0 4.142 3.358 7.5 7.5 7.5zm12.702-47.771c2.988 0 5.609 2.297 5.609 4.915s-2.621 4.915-5.609 4.915c-1.239 0-3.162.007-5.139.016-.009-1.905-.016-3.746-.016-4.931 0-1.021-.004-2.911-.009-4.915z"/><path d="m152.101 62.771h19.932c4.143 0 7.5-3.357 7.5-7.5s-3.357-7.5-7.5-7.5h-12.432v-8.667h10.962c4.143 0 7.5-3.357 7.5-7.5s-3.357-7.5-7.5-7.5h-10.962v-8.667h12.432c4.143 0 7.5-3.357 7.5-7.5s-3.357-7.5-7.5-7.5h-19.932c-4.143 0-7.5 3.357-7.5 7.5v47.334c0 4.142 3.357 7.5 7.5 7.5z"/><path d="m72.362 62.094c3.483-1.089 5.734-4.313 5.734-8.287l-.446-46.161c-.04-4.117-3.39-7.428-7.498-7.428-.025 0-.05 0-.074 0-4.143.04-7.468 3.431-7.428 7.572l.233 24.112-19.567-28.354c-1.864-2.701-5.266-3.876-8.404-2.9-3.134.977-5.269 3.877-5.269 7.16v47.682c0 4.143 3.357 7.5 7.5 7.5s7.5-3.357 7.5-7.5v-23.61l18.55 26.879c2.143 3.095 5.742 4.401 9.169 3.335z"/><path d="m7.5.218c-4.143 0-7.5 3.357-7.5 7.5v47.771c0 4.143 3.357 7.5 7.5 7.5s7.5-3.357 7.5-7.5v-47.771c0-4.143-3.357-7.5-7.5-7.5z"/><path d="m391.116 62.88c17.298 0 31.37-14.08 31.37-31.386s-14.072-31.385-31.37-31.385-31.37 14.079-31.37 31.385 14.072 31.386 31.37 31.386zm0-47.771c9.026 0 16.37 7.351 16.37 16.385 0 9.035-7.344 16.386-16.37 16.386s-16.37-7.351-16.37-16.386c0-9.034 7.344-16.385 16.37-16.385z"/><path d="m504.056.109c-.025 0-.05 0-.074 0-4.143.04-7.234 3.431-7.194 7.572v24.111l-19.568-28.354c-1.864-2.701-5.266-3.877-8.404-2.9-3.134.977-5.269 3.877-5.269 7.16v47.682c0 4.143 3.357 7.5 7.5 7.5s7.5-3.357 7.5-7.5v-23.609l18.55 26.879c2.144 3.096 5.74 4.405 9.169 3.335 3.483-1.089 5.734-4.313 5.734-8.286v-46.162c-.04-4.117-3.836-7.428-7.944-7.428z"/><path d="m441.403 62.88c4.143 0 7.5-3.357 7.5-7.5v-47.771c0-4.143-3.357-7.5-7.5-7.5s-7.5 3.357-7.5 7.5v47.771c0 4.142 3.358 7.5 7.5 7.5z"/><path d="m335.193 62.88c5.242 0 10.022-1.274 14.209-3.789 3.551-2.133 4.701-6.74 2.568-10.291-2.132-3.55-6.74-4.699-10.291-2.568-8.352 5.016-22.856-1.502-22.856-14.737 0-12.047 12.64-19.993 23.459-14.774 3.735 1.8 8.215.233 10.014-3.496 1.8-3.731.234-8.214-3.496-10.014-4.265-2.058-8.843-3.101-13.606-3.101-17.298 0-31.37 14.079-31.37 31.385s14.072 31.385 31.369 31.385z"/><path d="m199.922 192.089c42.535-6.739 80.248-3.759 118.671 1.943 4.684.695 9.106 1.352 13.462 2.3 4.056.883 8.045-1.693 8.924-5.732.881-4.048-1.686-8.043-5.732-8.924-5.052-1.1-10.163-1.845-15.325-2.615l-6.811-27.403c-2.915-11.729-11.909-21.19-23.473-24.691l-18.373-5.563c-9.954-3.016-20.787-3.022-30.764 0l-17.624 5.336c-11.515 3.485-20.497 12.9-23.442 24.571h.001l-7.96 31.535c-1.318 5.226 3.15 10.086 8.446 9.243zm14.057-37.108c1.664-6.595 6.738-11.915 13.244-13.885l17.624-5.336c7.154-2.165 14.934-2.163 22.068 0l18.375 5.563c6.533 1.979 11.615 7.325 13.263 13.953l5.319 21.404c-32.653-4.306-65.979-4.468-95.128-.96z"/><path d="m186.33 298.047v11.997c0 4.142 3.354 7.498 7.494 7.498 4.139 0 7.493-3.357 7.493-7.498v-11.997c0-4.142-3.354-7.498-7.493-7.498s-7.494 3.357-7.494 7.498z"/><path d="m311.118 298.047v11.997c0 4.142 3.354 7.498 7.493 7.498s7.494-3.357 7.494-7.498v-11.997c0-4.142-3.354-7.498-7.494-7.498-4.138 0-7.493 3.357-7.493 7.498z"/><path d="m267.018 304.762c-5.72 6.568-15.885 6.562-21.6 0-2.718-3.122-7.453-3.448-10.572-.728-3.12 2.72-3.446 7.458-.727 10.579 11.692 13.429 32.517 13.415 44.198 0 2.719-3.121 2.393-7.858-.727-10.579s-7.854-2.396-10.572.728z"/><path d="m405.47 202.067h-12.707l-10.182-40.962c-7.173-28.422-29.91-51.613-59.337-60.521-74.236-22.482-62.529-21.857-134.722-.001-28.76 8.708-51.114 31.898-58.339 60.522l-2.206 8.747c-1.014 4.016 1.42 8.094 5.437 9.107 4.007 1.013 8.094-1.42 9.107-5.438l2.206-8.747c5.944-23.549 24.391-42.645 48.141-49.836 69.686-21.098 55.507-21.356 126.029.001 24.418 7.393 43.247 26.488 49.134 49.81l17.563 70.652c-41.336-19.184-89.675-27.176-135.352-27.176-44.397 0-84.008 8.707-123.357 27.258l8.331-33.016c1.013-4.017-1.421-8.094-5.438-9.107-4.008-1.01-8.093 1.42-9.107 5.438l-10.925 43.297c-22.678.846-40.87 19.56-40.87 42.455 0 22.901 18.204 41.617 40.893 42.451 13.454 46.006 48.006 83.108 91.993 100.031-18.735 15.836-30.476 39.467-30.476 65.65v11.818c0 4.143 3.357 7.5 7.5 7.5h154.864c20.948 0 40.707-9.908 53.396-26.33 7.374 3.14 16.315.682 20.835-6.707 2.655-4.342 4.792-8.958 6.376-13.771 4.804-1.585 9.422-3.728 13.775-6.395 10.723-6.567 10.701-22.017 0-28.571-4.342-2.658-8.958-4.797-13.771-6.384-1.585-4.815-3.723-9.436-6.38-13.78-4.211-6.885-13.018-10.091-20.823-6.677-4.998-6.472-11.143-12.018-18.075-16.313 2.399-2.64 4.707-5.359 6.901-8.142 2.564-3.252 2.007-7.968-1.246-10.533-3.252-2.563-7.969-2.007-10.533 1.246-2.939 3.727-6.101 7.33-9.432 10.756-34.876-11.498-71.964 7.262-84.331 40.876-80.906 8.352-146.235-53.648-151.31-126.625 25.979-5.97 43.966-29.938 42.016-56.926 59.65-20.626 132.996-18.031 190.307.417-1.715 26.697 16.05 50.445 41.875 56.469-1.314 17.696-6.057 35.162-13.937 51.039-1.842 3.711-.327 8.211 3.383 10.053 3.717 1.845 8.214.321 10.053-3.383 4.023-8.106 7.304-16.588 9.824-25.293 35.385-.29 56.758-10.968 68.491-19.951 14.915-11.421 23.47-26.92 23.47-42.522.002-35.609-40.861-62.486-89.044-62.486zm-299.343 109.471c-12.659-2.447-22.251-13.614-22.251-26.987 0-13.406 9.637-24.594 22.339-27.007-3.304 18.094-3.324 36.176-.088 53.994zm95.927 185.462h-15.768v-4.317c0-4.082.352-8.151 1.038-12.145 4.853 1.667 9.743 3.147 14.729 4.456v12.006zm184.186-65.247c1.217-4.729 3.119-9.269 5.649-13.483.994-1.653 2.464-1.575 3.194-.38 2.639 4.314 4.614 8.979 5.871 13.863.682 2.646 2.747 4.712 5.392 5.394 4.881 1.258 9.541 3.233 13.852 5.874 1.165.711 1.165 2.274-.001 2.987-4.328 2.651-8.988 4.631-13.852 5.884-2.646.681-4.712 2.747-5.393 5.393-1.257 4.881-3.231 9.542-5.869 13.854-.714 1.167-2.263 1.16-2.972.002-2.641-4.321-4.615-8.982-5.869-13.854-.682-2.646-2.747-4.713-5.394-5.394-4.829-1.244-9.456-3.206-13.759-5.829-.058-.043-.119-.083-.179-.124-1.001-.687-1.092-2.087-.007-2.836 2.729-1.878 8.396-4.526 13.943-5.956 2.647-.683 4.713-2.75 5.394-5.395zm-32.576-35.743c.014.006.027.011.042.017 9.262 3.853 17.321 10.405 23.056 18.668-1.501 2.962-2.794 6.018-3.83 9.16-2.202.731-4.394 1.588-6.477 2.515-6.477-11.724-18.932-19.349-32.804-19.349-4.143 0-7.5 3.357-7.5 7.5s3.357 7.5 7.5 7.5c8.884 0 16.793 5.216 20.407 13.067-3.905 5.679-3.901 13.176-.004 18.861-3.616 7.846-11.522 13.058-20.403 13.058-12.392 0-22.474-10.091-22.474-22.493 0-4.143-3.357-7.5-7.5-7.5s-7.5 3.357-7.5 7.5c0 20.674 16.811 37.493 37.474 37.493 13.876 0 26.333-7.628 32.808-19.357 2.118.958 4.276 1.817 6.479 2.543 1.033 3.137 2.326 6.183 3.822 9.136-9.762 14.077-25.922 22.671-43.11 22.671-28.92 0-52.447-23.545-52.447-52.486 0-36.562 37.374-63.069 72.461-48.504zm-134.23 36.608c15.107 3.775 30.82 5.217 47.233 4.046-2.732 23.319 6.78 45.877 24.652 60.337h-74.265v-26.313c0-4.143-3.357-7.5-7.5-7.5-3.729 0-6.813 2.723-7.394 6.288-3.608-1.024-7.172-2.148-10.716-3.382 5.557-13.756 15.341-25.536 27.99-33.476zm-100.592-153.438c.36-8.158 1.447-16.375 3.284-24.583 8.015-4.178 16.022-7.923 24.063-11.241-.638 16.589-11.786 30.844-27.347 35.824zm247.407-35.731c8.459 3.314 16.5 7.009 24.044 11.073 1.807 8.101 2.88 16.351 3.207 24.625-15.619-5.042-26.573-19.312-27.251-35.698zm39.931 68.112c1.609-8.912 2.44-17.962 2.44-27.008 0-9.047-.818-18.095-2.42-27.014 12.712 2.404 22.36 13.598 22.36 27.011.001 13.419-9.658 24.615-22.38 27.011zm55.747-16.394c-5.499 4.21-13.596 8.86-25.043 12.211 17.615-27.551-1.46-64.044-34.169-65.281l-6.222-25.03h8.978c37.145 0 74.046 19.461 74.046 47.487-.001 10.736-6.577 22.18-17.59 30.613z"/></g></g></svg>