<svg id="Capa_1" enable-background="new 0 0 512 512" height="512" viewBox="0 0 512 512" width="512" xmlns="http://www.w3.org/2000/svg"><g><path d="m110 364.5h90v51h-90z" fill="#ffb357"/><g><g><g><path d="m383.539 384.178h-54.982l-35.929 35.929v84.347h181.86c0-56.662-38.099-105.285-90.949-120.276z" fill="#ffce71"/><g fill="#ffb357"><path d="m383.539 384.178c-10.83-3.073-22.251-4.726-34.052-4.726-41.207 0-77.824 20.066-100.61 50.93v74.072h43.752c0-21.292 5.385-41.372 14.844-58.963-.006-.002-.011-.005-.017-.007 15.856-29.499 43.214-51.975 76.083-61.306z"/><path d="m386.58 432.437c-12.088-7.551-27.788-5.761-37.866 4.317l-8.634 8.635h-47.452v59.065h50.987c15.357 0 30.086-6.101 40.945-16.961l7.448-7.449c13.921-13.922 11.27-37.176-5.428-47.607z"/></g></g><g fill="#ffcbbe"><path d="m116.477 192.031c-1.761-.217-3.55-.342-5.369-.342-24.022 0-43.495 19.474-43.495 43.496s19.474 43.496 43.495 43.496c1.819 0 3.609-.125 5.369-.342 21.487-2.647 38.126-20.951 38.126-43.154s-16.64-40.507-38.126-43.154z"/><circle cx="461.005" cy="235.185" r="43.495"/></g><g><path d="m455.641 192.03c-16.895-66.596-71.986-117.96-140.589-129.403h-33.418c-22.218 0-43.202 10.211-56.913 27.693l-113.614 144.865 113.614 144.865c13.711 17.482 34.696 27.684 56.913 27.684h33.418c68.658-11.476 123.702-62.842 140.589-129.394 3.503-13.805 5.364-28.263 5.364-43.155 0-14.893-1.862-29.351-5.364-43.155z" fill="#fad5cb"/><path d="m169.101 235.185c0-25.03 5.266-48.828 14.736-70.359 8.642-19.648 20.788-37.404 35.653-52.477 25.297-25.649 58.45-43.531 95.562-49.723-9.433-1.574-19.117-2.392-28.997-2.392-68.263 0-127.384 39.105-156.212 96.132-5.685 11.247-10.2 23.186-13.366 35.665-1.472 5.8-2.636 11.722-3.513 17.737-1.21 8.299-1.856 16.782-1.856 25.417 0 14.893 1.867 29.349 5.369 43.154 19.219 75.75 87.852 131.793 169.578 131.793 9.88 0 19.564-.825 28.997-2.399-82.817-13.817-145.951-85.808-145.951-172.548z" fill="#ffcbbe"/></g><g><path d="m251.587 42.677c-4.5 2.602-9.479 4.461-14.767 5.406-68.413 12.222-120.344 72.021-120.344 143.948l21.61-14.477c16.466-11.03 35.837-16.919 55.656-16.919h40.175c16.146 0 31.632 6.414 43.049 17.832 11.417-11.417 26.903-17.832 43.049-17.832z" fill="#ce857a"/><path d="m340.365 49.081c-15.081-3.25-33.019-17.414-39.918-31.213-2.306-6.912-8.409-10.368-14.388-10.368-6.041 0-12.082 3.456-14.388 10.368-3.425 10.673-10.695 19.379-20.084 24.809-7.905 14.053-12.208 30.037-12.24 46.51-.002.854.008 1.706.029 2.556.954 38.482 33.078 68.892 71.572 68.892h58.6c15.625 0 31.032 3.661 44.986 10.69l41.106 20.706c.001-70.141-49.381-128.748-115.275-142.95z" fill="#d6948c"/></g><g><g><g><g><ellipse cx="178.657" cy="293.547" fill="#ff8e9e" rx="28.879" ry="36.265" transform="matrix(.001 -1 1 .001 -115.082 471.889)"/></g><g><ellipse cx="375.224" cy="293.758" fill="#ff8e9e" rx="28.879" ry="36.265" transform="matrix(.001 -1 1 .001 81.065 668.666)"/></g></g></g></g></g></g><g><path d="m55.068 355 30.653 91.949c21.808-.112 39.453-17.82 39.453-39.654v-29.446c0-49.62-70.106-61.73-70.106-22.849z" fill="#ffddcf"/></g><g><path d="m37.895 300.483c-3.144 0-6.341.49-9.488 1.539-15.718 5.24-24.212 22.229-18.972 37.948l37.512 112.523c5.24 15.718 22.23 24.212 37.948 18.972 3.146-1.049 5.997-2.575 8.511-4.461z" fill="#4c5699"/><path d="m103.867 433.518-37.513-112.524c-4.19-12.571-15.896-20.513-28.46-20.511-10.05 7.536-14.651 20.915-10.46 33.487l37.512 112.523c4.191 12.571 15.899 20.513 28.46 20.511 10.051-7.535 14.652-20.914 10.461-33.486z" fill="#676fb2"/></g><g><path d="m205.926 360.419c-2.672.131-5.369.616-8.031 1.503-15.718 5.24-24.212 22.23-18.972 37.948l27.827 83.472 20.476-6.59z" fill="#4c5699"/><path d="m235.842 380.895c-4.352-13.056-16.813-21.119-29.917-20.476-7.591 7.783-10.678 19.427-7.003 30.451l28.303 85.881 36.642-11.793z" fill="#676fb2"/></g><path d="m68.958 423.66-19.589-58.761c-1.972-5.912-7.504-9.899-13.736-9.899-19.188 0-32.737 18.799-26.668 37.001l10.449 31.345c4.699 14.099 17.894 23.608 32.755 23.608 13.505 0 21.06-10.482 16.789-23.294z" fill="#ffcbbe"/><path d="m197.995 412.5h20.435c0-38.881 70.106-26.771 70.106 22.849v29.446c0 21.903-17.756 39.659-39.659 39.659h-34.346c-14.861 0-28.056-9.51-32.755-23.608l-10.449-31.345c-6.069-18.203 7.48-37.001 26.668-37.001z" fill="#fad5cb"/><g><path d="m461.266 286.198c27.994-.146 50.734-22.961 50.734-50.992 0-28.061-21.84-49.924-49.06-50.951-3.558-71.197-55.583-130.912-126.325-143.551-13.719-2.451-24.842-12.079-29.056-25.209-3.14-9.413-11.58-15.495-21.501-15.495-9.922 0-18.362 6.083-21.529 15.578-4.284 13.354-15.735 22.75-29.029 25.126-33.862 6.05-65.124 23.657-88.026 49.579-2.743 3.104-2.45 7.844.654 10.586s7.844 2.449 10.585-.654c20.672-23.396 48.879-39.287 79.425-44.745 18.808-3.362 34.71-16.722 40.645-35.228 1.623-4.864 5.977-5.242 7.273-5.242 2.671 0 5.984 1.377 7.246 5.161 5.888 18.349 21.473 31.879 40.673 35.309 62.028 11.083 108.108 62.281 113.607 124.124l-29.679-14.951c-14.924-7.519-31.646-11.493-48.359-11.493h-49.531c-15.865 0-30.906 5.367-43.049 15.242-12.142-9.876-27.182-15.242-43.047-15.242h-40.175c-21.378 0-42.067 6.29-59.829 18.19l-9.156 6.134c2.007-19.057 7.919-37.548 17.415-54.165 2.055-3.597.806-8.178-2.79-10.233-3.596-2.054-8.177-.805-10.233 2.79-11.911 20.843-18.735 44.34-19.954 68.39-27.233 1.012-49.08 23.472-49.08 50.951 0 28.034 22.737 50.852 50.736 50.992 7.641 26.268 21.206 50.512 39.427 70.835h-21.649c-9.302-22.437-33.236-34.364-53.125-32.285l-2.032-6.096c-6.538-19.616-27.812-30.255-47.434-23.718-16.163 5.389-26.038 21.478-26.038 37.02 0 3.467.75 6.967 1.901 10.418l6.412 17.959c-.538.647-1.062 1.31-1.561 2.001-4.378 6.075-6.752 13.238-6.752 20.287 0 3.929.562 7.902 1.856 11.788l10.449 31.347c4.284 12.854 14.324 22.553 26.691 26.628 14.607 43.807 70.907 32.551 73.811-6.615 7.941-5.644 13.935-13.602 17.165-22.73h37.094c-4.862 8.558-6.14 19.013-2.852 28.876l10.449 31.347c5.729 17.19 21.751 28.739 39.869 28.739h259.95c4.143 0 7.5-3.357 7.5-7.5 0-19.675-4.245-38.643-12.617-56.378-1.769-3.746-6.238-5.348-9.984-3.58-3.745 1.769-5.348 6.238-3.58 9.984 6.351 13.452 10.021 27.708 10.947 42.474h-81.509c1.596-1.321 3.141-2.72 4.625-4.204l7.448-7.449c2.929-2.929 2.929-7.678-.001-10.606-2.928-2.928-7.677-2.929-10.606.001l-7.448 7.449c-9.519 9.521-22.177 14.764-35.641 14.764-.275 0-.546.017-.814.046h-59.479c7.877-8.432 12.712-19.741 12.712-32.163v-11.948h40.089l2.112 3.084c2.337 3.414 7.001 4.294 10.425 1.951 3.418-2.34 4.291-7.008 1.951-10.426l-.828-1.208 7.428-7.428c2.929-2.93 2.929-7.678 0-10.607-2.929-2.928-7.677-2.928-10.607 0l-9.633 9.635h-40.937v-2.501c0-6.308-.979-12.279-2.907-17.866 31.753-1.211 61.738-10.576 87.645-26.29.238.065.482.13.717.196 23.419 6.645 43.941 20.225 59.348 39.271 2.609 3.224 7.333 3.716 10.548 1.114 3.221-2.604 3.72-7.327 1.114-10.548-14.945-18.477-34.176-32.375-56.084-40.671 30.484-23.125 53.663-55.804 64.85-94.398zm35.726-50.992c0 18.507-14.038 33.791-32.024 35.775 4.587-23.083 4.824-47.265-.001-71.551 17.987 1.984 32.025 17.268 32.025 35.776zm-389.846 35.776c-17.988-1.982-32.029-17.267-32.029-35.776 0-18.51 14.042-33.796 32.031-35.777-4.622 23.25-4.803 47.411-.002 71.553zm-80.611 150.03-10.449-31.348c-2.119-6.356-1.086-13.121 2.834-18.561 3.927-5.447 10.02-8.572 16.718-8.572 3.009 0 5.669 1.918 6.62 4.772l19.589 58.766c2.648 7.944-1.296 13.426-9.674 13.426-11.483 0-21.91-7.3-25.638-18.483zm38.816 42.162c-4.016-2.008-7.267-5.097-9.447-8.907 16.688-2.002 25.554-16.8 20.174-32.939v-.001l-19.589-58.767c-2.996-8.988-11.376-15.028-20.85-15.028-5.205 0-10.194 1.099-14.73 3.155l-4.352-13.057c-3.924-11.771 2.459-24.54 14.227-28.464 11.77-3.924 24.538 2.461 28.461 14.23l37.511 112.534c6.339 19.015-13.595 36.144-31.405 27.244zm52.327-55.842c0 7.365-2.515 14.774-7.695 20.845l-29.558-88.672c16.979.233 37.253 14.074 37.253 38.378zm14.981.706c.004-.235.019-.471.019-.706v-29.449c0-1.981-.111-3.93-.306-5.85h33.002c2.087 1.842 4.432 3.808 6.758 5.673-4.893 13.526-.67 23.528 1.597 30.332zm148.375 56.799c0 17.734-14.426 32.163-32.158 32.163h-34.345c-11.651 0-21.954-7.428-25.639-18.482l-10.449-31.348c-4.41-13.228 5.395-27.133 19.552-27.133h20.435c4.142 0 7.5-3.357 7.5-7.5 0-11.143 7.531-14.477 13.849-15.312 10.888-1.446 26.449 3.942 35.124 17.015 4.068 6.131 6.131 13.246 6.131 21.147zm-80.768-95.767c11.77-3.926 24.538 2.461 28.461 14.23l.426 1.277c-9.168 3.624-15.363 10.848-17.446 20.459h-13.711c-3.072 0-6.122.399-9.066 1.171l-2.891-8.674c-3.924-11.769 2.459-24.539 14.227-28.463zm85.816 33.592c-.358 0-.716-.013-1.076-.015-9.893-12.568-25.636-20.455-40.903-20.652l-1.146-3.438c-8.981-26.944-43.651-34.445-62.943-13.768-49.494-40.583-71.674-105.51-56.916-168.148l19.166-12.841c15.283-10.239 33.085-15.651 51.48-15.651h40.175c14.257 0 27.662 5.553 37.744 15.636 2.925 2.927 7.679 2.93 10.607 0 10.082-10.083 23.487-15.636 37.745-15.636h49.531c14.38 0 28.769 3.42 41.611 9.89l37.988 19.137c24.484 105.557-55.666 205.486-163.063 205.486z"/><path d="m199.844 243.729c-.002 0-.004 0-.007 0-4.138 0-7.496 3.354-7.5 7.494l-.013 14.283c-.004 4.142 3.351 7.503 7.493 7.507h.007c4.139 0 7.496-3.354 7.5-7.494l.013-14.283c.004-4.142-3.351-7.503-7.493-7.507z"/><path d="m354.138 243.913c-.002 0-.005 0-.007 0-4.139 0-7.496 3.354-7.5 7.493l-.014 14.284c-.004 4.143 3.351 7.504 7.493 7.508h.007c4.138 0 7.496-3.354 7.5-7.493l.014-14.284c.003-4.143-3.351-7.504-7.493-7.508z"/><path d="m292.546 261.666c-9.75-4.962-21.374-4.979-31.145-.033-3.696 1.87-5.175 6.383-3.305 10.079 1.871 3.697 6.385 5.176 10.078 3.305 5.421-2.744 11.997-2.817 17.569.02 3.694 1.88 8.208.406 10.085-3.284 1.88-3.692.41-8.208-3.282-10.087z"/><path d="m212.944 224.159-23.543-4.178c-4.079-.725-7.972 1.995-8.695 6.075-.723 4.079 1.996 7.973 6.074 8.696l23.543 4.178c.443.078.884.116 1.319.116 3.568 0 6.731-2.556 7.376-6.191.724-4.079-1.996-7.973-6.074-8.696z"/><path d="m364.644 212.678-23.552 4.127c-4.08.715-6.808 4.603-6.093 8.683.713 4.065 4.582 6.807 8.682 6.093l23.552-4.127c4.08-.715 6.808-4.603 6.093-8.684-.716-4.078-4.598-6.801-8.682-6.092z"/><circle cx="37.901" cy="330.512" r="7.5"/></g></g></svg>