<svg id="Capa_1" enable-background="new 0 0 512 512" height="512" viewBox="0 0 512 512" width="512" xmlns="http://www.w3.org/2000/svg"><g><path d="m140.164 382.241-95.425 23.439c-26.348 6.477-44.739 29.946-44.739 57.073v49.247h94.296v-56.753h29.986v56.753h80.142l-63.71-128.69c-.17-.36-.37-.709-.55-1.069z"/><path d="m167.59 370.01 3.59 7.25.79-.24c23.13-7.07 38.74-27.95 39.04-52.07-31.06-13.62-54.81-40.91-63.58-74.21h-27.4c-27.65 0-50.91 19.16-57.2 44.91 19.39 2.4 38.07 8.97 54.79 19.35 21.48 13.34 38.76 32.36 49.97 55.01z"/><path d="m287.7 374.89c-9.12-12.32-14.65-26.55-16.23-41.6-5.06.71-10.22 1.07-15.47 1.07s-10.41-.36-15.47-1.07c-1.58 15.05-7.11 29.28-16.23 41.6-10.11 13.68-23.77 23.81-39.69 29.51l53.27 107.6h36.24l53.27-107.6c-15.92-5.7-29.58-15.83-39.69-29.51z"/><path d="m300.99 324.95c.3 24.12 15.91 45 39.04 52.07l.79.24 3.59-7.25c11.21-22.65 28.49-41.67 49.97-55.01 16.72-10.38 35.4-16.95 54.79-19.35-6.29-25.75-29.55-44.91-57.2-44.91h-27.4c-8.77 33.3-32.52 60.59-63.58 74.21z"/><path d="m467.241 405.69-95.425-23.409c-.18.34-.36.68-.53 1.03l-63.71 128.689h80.142v-56.753h29.986v56.753h94.296v-49.237c0-27.137-18.401-50.596-44.759-57.073z"/><path d="m255.857 58.585 11.659 11.747c18.996 19.117 43.971 30.096 70.743 31.204v-19.276c.001-45.364-36.896-82.26-82.259-82.26s-82.26 36.896-82.26 82.26v19.265c26.652-1.184 51.516-12.152 70.447-31.193z"/><path d="m256 304.36c45.363 0 82.26-36.863 82.26-82.172v-87.716c-30.348-.965-58.997-11.604-82.402-30.436-23.34 18.777-51.878 29.405-82.117 30.425v87.727c-.001 45.308 36.896 82.172 82.259 82.172z"/><path d="m143.74 169.81v-68.27h-43.96c0 30.29 18.05 56.44 43.96 68.27z"/><path d="m409.78 101.54h-41.52v67.1c24.6-12.32 41.52-37.77 41.52-67.1z"/></g></svg>